<?xml version="1.0" encoding="utf-8"?>
<!-- Generator: Adobe Illustrator 21.0.2, SVG Export Plug-In . SVG Version: 6.00 Build 0)  -->
<svg version="1.1" id="Layer_1" xmlns="http://www.w3.org/2000/svg" xmlns:xlink="http://www.w3.org/1999/xlink" x="0px" y="0px"
	 viewBox="0 0 67 50" style="enable-background:new 0 0 67 50;" xml:space="preserve">
<style type="text/css">
	.st0{fill:#C5C9D1;}
</style>
<g>
	<path class="st0" d="M33.7,18.3c-5,0-9,4-9,9c0,5,4,9,9,9s9-4,9-9C42.7,22.3,38.6,18.3,33.7,18.3z"/>
	<path class="st0" d="M60,4H41c0-2.2-1.8-4-4-4h-7c-2.2,0-4,1.8-4,4H7c-3.9,0-7,3.1-7,7v32c0,3.9,3.1,7,7,7h53c3.9,0,7-3.1,7-7V11
		C67,7.1,63.9,4,60,4z M33.7,41.3c-7.7,0-14-6.3-14-14s6.3-14,14-14s14,6.3,14,14S41.4,41.3,33.7,41.3z"/>
</g>
</svg>
